<svg width="107" height="108" viewBox="0 0 107 108" fill="none" xmlns="http://www.w3.org/2000/svg">
<path d="M82.925 48.6502C69.6169 48.6502 58.85 59.4171 58.85 72.7252C58.85 86.0333 69.6169 96.8002 82.925 96.8002C96.2331 96.8002 107 86.0333 107 72.7252C107 59.4171 96.2331 48.6502 82.925 48.6502ZM93.625 73.7785C93.625 74.6646 92.8894 75.4002 92.0033 75.4002H81.8717C80.9856 75.4002 80.25 74.6646 80.25 73.7785V60.9719C80.25 60.0858 80.9856 59.3502 81.8717 59.3502H83.9783C84.8644 59.3502 85.6 60.0858 85.6 60.9719V70.0502H92.0033C92.8894 70.0502 93.625 70.7858 93.625 71.6719V73.7785ZM53.5 72.7252C53.5 68.0774 54.6202 63.6804 56.5428 59.7682C55.2053 59.5174 53.8344 59.3502 52.43 59.3502H49.638C45.9264 61.0555 41.7969 62.0252 37.45 62.0252C33.1031 62.0252 28.9903 61.0555 25.262 59.3502H22.47C10.0647 59.3502 0 69.4149 0 81.8202V88.7752C0 93.2057 3.59453 96.8002 8.025 96.8002H66.0558C58.4822 91.4669 53.5 82.6729 53.5 72.7252ZM37.45 54.0002C49.2702 54.0002 58.85 44.4204 58.85 32.6002C58.85 20.78 49.2702 11.2002 37.45 11.2002C25.6298 11.2002 16.05 20.78 16.05 32.6002C16.05 44.4204 25.6298 54.0002 37.45 54.0002Z" fill="#F6B002"/>
</svg>
