<svg width="107" height="108" viewBox="0 0 107 108" fill="none" xmlns="http://www.w3.org/2000/svg">
<g clip-path="url(#clip0_437_7933)">
<path d="M53.5 72.7252C53.5 68.0774 54.6202 63.6803 56.5428 59.7682C55.2053 59.5174 53.8344 59.3502 52.43 59.3502H49.638C45.9264 61.0555 41.7969 62.0252 37.45 62.0252C33.1031 62.0252 28.9903 61.0555 25.262 59.3502H22.47C10.0647 59.3502 0 69.4149 0 81.8202V88.7752C0 93.2057 3.59453 96.8002 8.025 96.8002H66.0558C58.4822 91.4669 53.5 82.6728 53.5 72.7252ZM37.45 54.0002C49.2702 54.0002 58.85 44.4204 58.85 32.6002C58.85 20.78 49.2702 11.2002 37.45 11.2002C25.6298 11.2002 16.05 20.78 16.05 32.6002C16.05 44.4204 25.6298 54.0002 37.45 54.0002Z" fill="#F44336"/>
<path d="M83 48.875C89.2657 48.875 95.2748 51.3641 99.7054 55.7946C104.136 60.2251 106.625 66.2343 106.625 72.5C106.625 78.7657 104.136 84.7748 99.7054 89.2054C95.2748 93.6359 89.2657 96.125 83 96.125C76.7343 96.125 70.7251 93.6359 66.2946 89.2054C61.8641 84.7748 59.375 78.7657 59.375 72.5C59.375 66.2343 61.8641 60.2251 66.2946 55.7946C70.7251 51.3641 76.7343 48.875 83 48.875ZM71.1875 72.5C71.1875 73.0371 71.4008 73.5521 71.7806 73.9319C72.1604 74.3117 72.6754 74.525 73.2125 74.525H92.7875C93.3246 74.525 93.8396 74.3117 94.2194 73.9319C94.5992 73.5521 94.8125 73.0371 94.8125 72.5C94.8125 71.9629 94.5992 71.4479 94.2194 71.0681C93.8396 70.6883 93.3246 70.475 92.7875 70.475H73.2125C72.9466 70.475 72.6833 70.5274 72.4376 70.6291C72.1919 70.7309 71.9686 70.8801 71.7806 71.0681C71.5926 71.2561 71.4434 71.4794 71.3416 71.7251C71.2399 71.9708 71.1875 72.2341 71.1875 72.5Z" fill="#F44336"/>
</g>
<defs>
<clipPath id="clip0_437_7933">
<rect width="107" height="107" fill="white" transform="translate(0 0.5)"/>
</clipPath>
</defs>
</svg>
